# xmcd
#
# Track frame offsets: 
#        150
#        24231
#        46529
#        70105
#        103557
#        110594
#        130634
#        146778
#        169218
#        198697
#        213689
#        236846
#        250200
#        264152
#        282239
#        305000
#
# Disc length: 4435 seconds
#
# Revision: 1
# Processed by: cddbd v1.5.2PL0 Copyright (c) Steve Scherf et al.
# Submitted via: ExactAudioCopyFreeDBPlugin 1.0
#
DISCID=ea115110
DTITLE=群星 - TEST-CD试音极品11CDB
DYEAR=2012
DGENRE=stereo
TTITLE0=寒鸦戏水
TTITLE1=妆台秋思
TTITLE2=古风操
TTITLE3=十面埋伏
TTITLE4=赛马
TTITLE5=小放牛
TTITLE6=渔舟唱晚
TTITLE7=姑苏行
TTITLE8=百鸟朝凤
TTITLE9=喜相逢
TTITLE10=夜深沉
TTITLE11=忆江南
TTITLE12=吕戏四平调
TTITLE13=大浪淘沙
TTITLE14=月牙五更
TTITLE15=鸟语春雷
EXTD=
EXTT0=
EXTT1=
EXTT2=
EXTT3=
EXTT4=
EXTT5=
EXTT6=
EXTT7=
EXTT8=
EXTT9=
EXTT10=
EXTT11=
EXTT12=
EXTT13=
EXTT14=
EXTT15=
PLAYORDER=
